# xmcd
# Track frame offsets:
# 150
# 18128
# 33596
# 51856
#
# Disc length: 856 seconds
# Revision: 0
# Processed by: cddbd v1.4PL0 Copyright (c) Steve Scherf et al.
# Submitted via: VisiTrax 2.9.3.171 - For more info visit www.synapsa.com
#
DISCID=28035604
DTITLE=Various Artist - Blue Rose Collection Vol. 10 [CD 2) - Steve Wynn spe
DTITLE=cial cd
DYEAR=2003
DGENRE=Country-Rock
TTITLE0=Steve Wynn - Candy machine
TTITLE1=Steve Wynn - Carolyn
TTITLE2=Steve Wynn - The Ambassador of soul
TTITLE3=Steve Wynn - Look both ways
EXTD=Cd-r\ninclusi 4 video
EXTT0=
EXTT1=
EXTT2=
EXTT3=
PLAYORDER=
